PathFileType	4	(x/y/z)	S10_M20_T60
DataRate	CameraRate	NumFrames	NumMarkers	Units	OrigDataRate	OrigDataStartFrame	OrigNumFrames
240	240	11	51	mm	240	194	517
Frame#	Time	Sternum			R.Acromium			L.Acromium			Top.Head			R.ASIS			L.ASIS			R.PSIS			L.PSIS			R.Great.Tro			L.Great.Tro			R.Iliac.Crest			L.Iliac.Crest			V.Sacral			R.Thigh.Upper.Post			R.Thigh.Lower.Ant			R.Thigh.Lower.Post			R.Thigh.Upper.Ant			R.Knee.Lat			R.Knee.Med			R.Shank.Upper.Post			R.Shank.Lower.Ant			R.Shank.Lower.Post			R.Shank.Upper.Ant			R.Ankle.Lat			R.Ankle.Med			R.Heel.Upper			R.Heel.Med			R.Heel.Lat			R.Toe.Lat			R.Toe.Med			R.Toe.Tip			L.Thigh.Upper.Post			L.Thigh.Lower.Ant			L.Thigh.Lower.Post			L.Thigh.Upper.Ant			L.Knee.Lat			L.Knee.Med			L.Shank.Upper.Post			L.Shank.Lower.Ant			L.Shank.Lower.Post			L.Shank.Upper.Ant			L.Ankle.Lat			L.Ankle.Med			L.Heel.Upper			L.Heel.Med			L.Heel.Lat			L.Toe.Lat			L.Toe.Med			L.Toe.Tip			Cervical.Spine			Back			
		X1	Y1	Z1	X2	Y2	Z2	X3	Y3	Z3	X4	Y4	Z4	X5	Y5	Z5	X6	Y6	Z6	X7	Y7	Z7	X8	Y8	Z8	X9	Y9	Z9	X10	Y10	Z10	X11	Y11	Z11	X12	Y12	Z12	X13	Y13	Z13	X14	Y14	Z14	X15	Y15	Z15	X16	Y16	Z16	X17	Y17	Z17	X18	Y18	Z18	X19	Y19	Z19	X20	Y20	Z20	X21	Y21	Z21	X22	Y22	Z22	X23	Y23	Z23	X24	Y24	Z24	X25	Y25	Z25	X26	Y26	Z26	X27	Y27	Z27	X28	Y28	Z28	X29	Y29	Z29	X30	Y30	Z30	X31	Y31	Z31	X32	Y32	Z32	X33	Y33	Z33	X34	Y34	Z34	X35	Y35	Z35	X36	Y36	Z36	X37	Y37	Z37	X38	Y38	Z38	X39	Y39	Z39	X40	Y40	Z40	X41	Y41	Z41	X42	Y42	Z42	X43	Y43	Z43	X44	Y44	Z44	X45	Y45	Z45	X46	Y46	Z46	X47	Y47	Z47	X48	Y48	Z48	X49	Y49	Z49	X50	Y50	Z50	X51	Y51	Z51	

194	0.80417	363.52	1228.8	350.6	209.8	1371	497.38	265.38	1419.5	200.03	175.22	1696.8	386.08	319.46	974.17	427.07	300.09	966.98	197.03	109.79	987.7	354	113.02	989.09	271.75	269.7	908.96	507.53	221.69	899.42	145.73	220.77	1052.5	477.57	237.91	1045.9	175.81	88.872	955.05	319.98	370.35	718.39	496.01	443.88	671.11	443.31	400.56	634.9	483.04	412.95	756.75	451.19	443.84	519.61	434.87	412.23	521.17	313.77	413.5	285.35	446.26	482.58	232.63	419.85	423.86	212.37	440.35	477.41	309.43	424.6	446.12	108.58	416.79	448.43	119.45	337.4	384.84	64.626	371.88	393.19	36.533	345.07	390.01	41.267	407.15	563.18	40.909	446.84	589.06	46.481	337.95	647.79	65.301	378.98	102.18	651.12	171.77	149.74	551.09	174.65	77.873	560.54	192.15	176.94	635.21	154.62	74.291	473.68	185.99	112.34	448.5	306.68	-117.8	374.4	196.57	-139.04	266.39	195.22	-172.11	319.46	204.71	-83.877	319.85	188	-246.7	210.36	210.61	-219.13	201.04	291.86	-291.35	247.02	262.03	-309.39	223.56	298.16	-320.89	229.14	233.4	-263.93	71	184.95	-228.4	53.855	286.55	-194.37	34.28	238.51	158.25	1451.3	348.3	78.35	1243.7	306.11
195	0.80833	369.34	1229.5	351.4	215.44	1371.6	497.75	271.27	1420.1	200.49	180.74	1697.3	386.95	325.24	975.04	428.11	306.03	967.32	198	115.66	988.23	354.45	119.04	989.43	272.08	275.34	909.82	508.34	228.1	899.3	146.65	226.29	1053.3	478.16	243.97	1046.1	176.48	94.715	955.45	320.4	375.95	718.87	496.65	449.36	671.52	443.89	405.97	635.35	483.56	418.62	757.22	451.91	448.6	519.72	435.29	418.22	522.04	313.97	415.91	285.79	446.37	484.46	232.3	419.92	425.48	212.67	440.34	480.12	309.14	424.75	446.48	108.72	416.67	449.08	119.67	337.32	384.89	64.648	371.88	393.22	36.557	345.09	390.05	41.308	407.17	563.21	40.958	446.83	589.14	46.269	337.84	647.89	64.909	378.89	110.44	649.61	172.22	158.94	550.02	174.59	87.114	558.69	192.25	185.31	634.55	154.73	84.15	472.32	185.62	122.98	446.35	305.98	-108.44	375.63	196.32	-131.15	267.89	194.57	-163.48	321.39	204.35	-75.264	320.65	187.44	-239.26	213.26	209.87	-211.92	203.52	291.39	-282.27	251.34	261.24	-300.99	228.6	297.6	-312.49	234.29	232.78	-260.61	73.801	184.9	-225.1	55.757	286.5	-192.49	33.799	238.16	163.93	1451.9	348.65	84.168	1244.3	306.28
196	0.8125	375.09	1230.2	352.14	221.05	1372.2	498.11	277.08	1420.7	200.91	186.26	1697.9	387.8	330.99	975.87	429.12	311.87	967.69	198.93	121.47	988.76	354.96	124.95	989.79	272.47	280.99	910.62	509.14	234.39	899.23	147.59	231.8	1054.1	478.77	249.91	1046.4	177.13	100.49	955.86	320.88	381.43	719.28	497.28	454.7	671.82	444.47	411.21	635.71	484.07	424.18	757.58	452.6	453.16	519.74	435.73	423.9	522.76	314.22	418.19	286.18	446.47	486.23	231.95	420.02	426.99	212.93	440.33	482.69	308.83	424.92	446.8	108.86	416.57	449.7	119.88	337.25	384.93	64.66	371.88	393.23	36.573	345.12	390.07	41.338	407.19	563.23	41.019	446.83	589.2	46.093	337.73	647.97	64.576	378.81	118.72	648.17	172.64	168.17	549.02	174.51	96.384	556.9	192.32	193.68	633.96	154.82	94.093	471.02	185.23	133.7	444.27	305.29	-98.913	376.85	196.02	-123.06	269.4	193.95	-154.67	323.31	203.94	-66.474	321.45	186.9	-231.61	216.18	209.13	-204.51	206.05	290.94	-273.02	255.6	260.44	-292.37	233.58	297.02	-303.87	239.36	232.15	-256.99	76.709	184.83	-221.51	57.772	286.44	-190.39	33.393	237.79	169.58	1452.5	348.97	89.923	1244.9	306.49
197	0.81667	380.76	1230.8	352.82	226.64	1372.8	498.45	282.78	1421.3	201.29	191.78	1698.5	388.64	336.69	976.66	430.08	317.61	968.1	199.82	127.24	989.3	355.53	130.74	990.17	272.92	286.63	911.36	509.93	240.55	899.21	148.53	237.31	1054.9	479.39	255.73	1046.7	177.77	106.18	956.29	321.42	386.8	719.63	497.89	459.9	671.99	445.04	416.28	635.97	484.58	429.65	757.84	453.27	457.52	519.68	436.19	429.24	523.33	314.49	420.33	286.53	446.56	487.9	231.58	420.14	428.4	213.15	440.31	485.13	308.48	425.1	447.1	108.98	416.47	450.29	120.08	337.17	384.96	64.663	371.87	393.24	36.582	345.14	390.09	41.359	407.2	563.25	41.086	446.83	589.25	45.946	337.63	648.03	64.292	378.75	127	646.78	173.04	177.43	548.12	174.4	105.68	555.19	192.36	202.05	633.44	154.89	104.12	469.79	184.84	144.48	442.3	304.62	-89.228	378.08	195.67	-114.78	270.92	193.35	-145.68	325.23	203.49	-57.511	322.26	186.36	-223.76	219.1	208.39	-196.91	208.62	290.5	-263.61	259.79	259.64	-283.55	238.48	296.43	-295.06	244.35	231.52	-253.05	79.709	184.74	-217.61	59.891	286.35	-188.04	33.086	237.39	175.18	1453.1	349.29	95.616	1245.5	306.76
198	0.82083	386.37	1231.5	353.43	232.21	1373.5	498.77	288.39	1422	201.63	197.29	1699.1	389.45	342.36	977.41	430.99	323.26	968.53	200.65	132.95	989.84	356.16	136.43	990.56	273.45	292.28	912.06	510.7	246.58	899.25	149.47	242.84	1055.6	480.03	261.42	1047	178.39	111.81	956.74	322.03	392.05	719.91	498.49	464.96	672.05	445.6	421.19	636.16	485.09	435.02	758.01	453.9	461.7	519.56	436.66	434.21	523.75	314.81	422.35	286.83	446.63	489.48	231.2	420.27	429.72	213.34	440.28	487.45	308.11	425.31	447.37	109.08	416.38	450.86	120.26	337.1	384.98	64.66	371.87	393.25	36.585	345.16	390.1	41.373	407.21	563.26	41.154	446.83	589.3	45.819	337.53	648.08	64.048	378.69	135.28	645.47	173.42	186.7	547.3	174.26	114.99	553.56	192.39	210.42	633.01	154.95	114.22	468.62	184.43	155.32	440.45	303.98	-79.392	379.29	195.26	-106.32	272.43	192.78	-136.52	327.13	203.01	-48.381	323.07	185.85	-215.71	222.03	207.67	-189.11	211.23	290.09	-254.07	263.89	258.84	-274.54	243.26	295.83	-286.06	249.24	230.89	-248.76	82.784	184.63	-213.38	62.102	286.23	-185.4	32.898	236.96	180.73	1453.7	349.6	101.25	1246.1	307.07
199	0.825	391.9	1232.3	353.97	237.77	1374.1	499.09	293.91	1422.7	201.93	202.8	1699.7	390.24	347.99	978.12	431.84	328.8	969.01	201.42	138.61	990.4	356.85	142.02	990.98	274.05	297.94	912.72	511.45	252.48	899.34	150.43	248.37	1056.3	480.69	266.98	1047.4	179	117.37	957.21	322.7	397.18	720.14	499.06	469.87	672.01	446.16	425.95	636.27	485.6	440.3	758.09	454.52	465.7	519.37	437.14	438.81	524.03	315.16	424.24	287.09	446.69	490.96	230.81	420.43	430.94	213.5	440.24	489.64	307.72	425.53	447.62	109.18	416.29	451.41	120.42	337.03	384.99	64.652	371.86	393.25	36.584	345.18	390.11	41.383	407.22	563.27	41.222	446.83	589.33	45.708	337.45	648.12	63.837	378.64	143.56	644.25	173.79	195.98	546.6	174.11	124.32	552.02	192.41	218.78	632.67	154.99	124.4	467.55	184.02	166.2	438.73	303.37	-69.415	380.49	194.81	-97.672	273.94	192.23	-127.2	329.01	202.5	-39.089	323.89	185.35	-207.47	224.94	206.97	-181.12	213.85	289.69	-244.4	267.88	258.06	-265.38	247.93	295.24	-276.89	254	230.27	-244.11	85.917	184.5	-208.81	64.395	286.08	-182.42	32.854	236.51	186.25	1454.3	349.91	106.82	1246.8	307.44
200	0.82917	397.36	1233	354.44	243.31	1374.8	499.39	299.33	1423.4	202.18	208.3	1700.4	391	353.58	978.79	432.63	334.24	969.52	202.13	144.22	990.96	357.6	147.52	991.43	274.72	303.59	913.35	512.18	258.24	899.5	151.38	253.92	1057	481.35	272.41	1047.8	179.58	122.86	957.7	323.44	402.19	720.32	499.62	474.64	671.88	446.71	430.54	636.32	486.1	445.47	758.09	455.1	469.53	519.13	437.62	443.02	524.18	315.54	426.03	287.32	446.74	492.36	230.4	420.6	432.09	213.63	440.2	491.71	307.31	425.76	447.86	109.26	416.21	451.93	120.56	336.96	385.01	64.642	371.85	393.25	36.581	345.2	390.12	41.39	407.22	563.27	41.286	446.83	589.37	45.609	337.37	648.16	63.651	378.59	151.84	643.11	174.14	205.27	546	173.94	133.66	550.59	192.41	227.13	632.42	155.02	134.66	466.56	183.6	177.12	437.17	302.8	-59.307	381.68	194.31	-88.841	275.43	191.72	-117.72	330.86	201.96	-29.643	324.71	184.86	-199.05	227.84	206.28	-172.93	216.47	289.3	-234.62	271.77	257.31	-256.06	252.44	294.66	-267.56	258.62	229.66	-239.08	89.093	184.34	-203.87	66.757	285.89	-179.07	32.975	236.03	191.72	1455	350.22	112.33	1247.4	307.86
201	0.83333	402.76	1233.7	354.82	248.84	1375.6	499.69	304.66	1424.1	202.4	213.79	1701.1	391.73	359.14	979.42	433.35	339.59	970.06	202.77	149.76	991.55	358.4	152.92	991.9	275.45	309.24	913.94	512.89	263.86	899.71	152.33	259.48	1057.7	482.02	277.72	1048.2	180.15	128.28	958.22	324.24	407.09	720.46	500.17	479.28	671.67	447.25	434.99	636.32	486.61	450.53	758.02	455.65	473.21	518.84	438.1	446.85	524.21	315.96	427.71	287.51	446.78	493.67	229.99	420.78	433.15	213.74	440.15	493.67	306.89	426	448.08	109.33	416.13	452.42	120.69	336.9	385.02	64.632	371.85	393.25	36.576	345.22	390.12	41.395	407.22	563.27	41.345	446.84	589.4	45.516	337.29	648.19	63.485	378.55	160.13	642.06	174.48	214.56	545.51	173.75	143.01	549.26	192.41	235.47	632.27	155.04	144.98	465.67	183.18	188.04	435.78	302.29	-49.077	382.85	193.77	-79.836	276.91	191.24	-108.09	332.69	201.4	-20.049	325.53	184.4	-190.45	230.72	205.63	-164.56	219.09	288.94	-224.76	275.53	256.6	-246.62	256.79	294.1	-258.1	263.09	229.08	-233.63	92.294	184.14	-198.55	69.174	285.66	-175.3	33.282	235.52	197.16	1455.7	350.52	117.77	1248.1	308.34
202	0.8375	408.09	1234.5	355.13	254.38	1376.3	499.98	309.89	1424.8	202.58	219.28	1701.8	392.43	364.65	980.02	434	344.85	970.64	203.35	155.25	992.16	359.26	158.25	992.4	276.24	314.89	914.51	513.58	269.34	899.98	153.28	265.07	1058.4	482.69	282.91	1048.7	180.69	133.64	958.77	325.1	411.87	720.57	500.69	483.78	671.4	447.78	439.3	636.27	487.11	455.5	757.9	456.18	476.75	518.52	438.56	450.31	524.13	316.4	429.29	287.67	446.8	494.91	229.57	420.98	434.14	213.83	440.1	495.52	306.46	426.25	448.29	109.4	416.06	452.89	120.8	336.83	385.03	64.621	371.84	393.25	36.57	345.23	390.12	41.4	407.22	563.28	41.397	446.84	589.43	45.428	337.23	648.21	63.334	378.52	168.41	641.12	174.81	223.86	545.14	173.55	152.37	548.05	192.4	243.8	632.22	155.05	155.37	464.88	182.75	198.97	434.57	301.82	-38.735	384.01	193.19	-70.661	278.37	190.79	-98.321	334.49	200.81	-10.316	326.35	183.95	-181.67	233.57	205	-156	221.7	288.59	-214.82	279.16	255.94	-237.06	260.96	293.56	-248.52	267.39	228.53	-227.76	95.502	183.9	-192.84	71.634	285.39	-171.06	33.789	234.99	202.55	1456.4	350.84	123.17	1248.8	308.88
203	0.84167	413.36	1235.3	355.36	259.91	1377.1	500.26	315.03	1425.5	202.73	224.77	1702.6	393.1	370.13	980.6	434.57	350.03	971.25	203.87	160.68	992.8	360.17	163.49	992.93	277.09	320.51	915.06	514.24	274.69	900.32	154.22	270.67	1059.1	483.35	287.98	1049.2	181.2	138.94	959.34	326.03	416.53	720.66	501.2	488.16	671.07	448.3	443.47	636.2	487.62	460.35	757.73	456.67	480.15	518.18	439.02	453.43	523.96	316.86	430.77	287.8	446.82	496.07	229.16	421.18	435.07	213.9	440.04	497.28	306.02	426.51	448.5	109.45	416	453.34	120.9	336.77	385.04	64.612	371.83	393.25	36.565	345.25	390.12	41.406	407.21	563.28	41.442	446.84	589.45	45.342	337.17	648.24	63.195	378.49	176.68	640.27	175.12	233.16	544.89	173.33	161.74	546.95	192.39	252.11	632.27	155.04	165.82	464.2	182.32	209.9	433.54	301.42	-28.294	385.15	192.58	-61.325	279.81	190.38	-88.418	336.25	200.22	-0.45298	327.17	183.53	-172.73	236.39	204.41	-147.25	224.28	288.25	-204.83	282.66	255.32	-227.42	264.94	293.05	-238.82	271.5	228.01	-221.45	98.701	183.62	-186.72	74.123	285.08	-166.3	34.506	234.43	207.91	1457.1	351.15	128.5	1249.5	309.47
204	0.84583	418.57	1236.1	355.5	265.44	1377.9	500.54	320.09	1426.3	202.84	230.24	1703.4	393.73	375.57	981.16	435.07	355.12	971.9	204.33	166.05	993.46	361.11	168.67	993.5	277.99	326.1	915.6	514.87	279.91	900.72	155.16	276.28	1059.8	484.02	292.94	1049.7	181.7	144.18	959.96	327	421.08	720.74	501.7	492.41	670.7	448.8	447.52	636.1	488.12	465.11	757.53	457.13	483.43	517.82	439.45	456.22	523.7	317.35	432.18	287.91	446.82	497.17	228.74	421.39	435.93	213.96	439.97	498.94	305.59	426.77	448.7	109.5	415.94	453.76	120.98	336.72	385.05	64.605	371.83	393.25	36.561	345.26	390.12	41.414	407.2	563.28	41.48	446.84	589.48	45.257	337.12	648.26	63.064	378.46	184.96	639.52	175.42	242.46	544.77	173.1	171.12	545.97	192.38	260.41	632.43	155.02	176.32	463.64	181.9	220.81	432.71	301.07	-17.762	386.28	191.94	-51.834	281.23	190	-78.391	337.97	199.62	9.5326	328	183.12	-163.62	239.16	203.86	-138.33	226.83	287.94	-194.8	286.01	254.76	-217.71	268.72	292.57	-229.04	275.42	227.52	-214.66	101.87	183.27	-180.17	76.624	284.71	-160.99	35.435	233.83	213.22	1457.9	351.48	133.78	1250.2	310.12
